<svg xmlns="http://www.w3.org/2000/svg" viewBox="0 0 100 100"><defs><style>.cls-1,.cls-2{fill:#fff;}.cls-1{opacity:0;}.cls-3{fill:#da3a30;}</style></defs><title>Asset 1</title><g id="Layer_2" data-name="Layer 2"><g id="Layer_1-2" data-name="Layer 1"><rect class="cls-1" width="100" height="100"/><circle class="cls-2" cx="50" cy="50" r="42.66"/><g id="New_Symbol" data-name="New Symbol"><path class="cls-3" d="M56,26.25c-2.14,1.9-2.38,5-2,7.7.7,3.67,3.6,6.39,6.68,8.22,4.18,2.37,8.41,4.66,12.65,6.89,3.07,1.7,6.21,4,7.2,7.57.79,2.79-.52,5.55-1.4,8.16C76.4,61.71,73,59,68.91,58.19c-3.06-1-7.2-.19-8.64,3-1.44,3.7-.76,8.46,2.48,11,5.69,4.48,14.74,4.85,20-.46,5.24-5.65,5-14.94.83-21.13C79.12,45.49,73,42.13,68.39,37.08c-2.36-2.83-3-6.58-4.55-9.81-1.4-2.91-5.73-3.25-7.88-1M30.54,22.34c-4.91,1.37-9,4.83-12.19,8.67A19.66,19.66,0,0,0,14.1,48.44a10.42,10.42,0,0,0,6.76,6.92c5.28,2,11.15.69,16.09-1.65l1.18-.32c-.18,2.4-.71,4.83-.26,7.24l-.06.22c-.32,4-.67,8.33.91,12.17a4.48,4.48,0,0,0,5.91,2.31c3.43-1.18,4-5.65,3.08-8.69-.55-2.14-2.24-3.57-4-4.77.63-9.5,1.3-19.15-.57-28.56a20.45,20.45,0,0,0-3.06-7.57,8.84,8.84,0,0,0-9.57-3.4M26.9,6.91A48.85,48.85,0,0,1,93.37,27.28c9.11,17,6.82,39.35-5.82,54A47.37,47.37,0,0,1,62.34,97.37,48.93,48.93,0,0,1,4.12,33.14,49.72,49.72,0,0,1,26.9,6.91"/><path class="cls-3" d="M27.12,35.65c2.53-1.85,5.24-4.1,8.56-4.06,1.69.13,2,2.19,2.32,3.49.1,3.12-.13,6.23-.3,9.34l-.05.8A62.29,62.29,0,0,1,25,47.39c-1.54,0-4-.38-3.88-2.43l.12-1.7c.46-3.35,3.45-5.6,5.92-7.61"/></g></g></g></svg>