<svg xmlns="http://www.w3.org/2000/svg" viewBox="0 0 2601.42 473.63"><defs><style>.cls-1,.cls-2{fill:red;}.cls-1,.cls-3{fill-rule:evenodd;}.cls-4{fill:#5f6467;}.cls-5{fill:#ea4235;}.cls-6{fill:#fcbc03;}.cls-7{fill:#4385f5;}.cls-8{fill:#34a853;}</style></defs><title>Mailer Logo</title><g id="Layer_2" data-name="Layer 2"><g id="Layer_1-2" data-name="Layer 1"><polygon class="cls-1" points="581.47 473.16 424.58 473.16 413.3 454.28 491.75 322.94 581.47 473.16"/><polygon class="cls-2" points="381.44 138.25 302.99 269.59 290.74 249.05 213.76 120.16 370.65 120.16 381.44 138.25"/><polygon class="cls-3" points="273.57 277.78 263.03 295.43 156.89 473.16 0 473.16 106.14 295.43 195.13 146.44 273.57 277.78"/><polygon class="cls-3" points="792.29 473.16 635.4 473.16 529.25 295.43 518.71 277.78 597.16 146.44 686.14 295.43 792.29 473.16"/><polygon points="578.53 120.16 501.55 249.05 486.85 273.66 474.59 294.2 473.85 295.43 396.14 425.55 378.99 454.28 367.71 473.16 210.82 473.16 300.54 322.94 316.96 295.43 317.7 294.2 396.14 162.86 408.4 142.32 421.64 120.16 578.53 120.16"/><path class="cls-4" d="M1192.13,120.05l53.68,183.7,24.39,81.36,21.92,73.73,3,9.37h-149.9L1098,293.89,996.11,447,891.64,301.47q-15.14,53.28-33,130.72-6.45,29.6-9.28,35.15c-1.9,3.7-5.71,5.56-11.46,5.56q-10.83,0-10.83-7.4,0-2.22,6.91-24.9l15.31-52.53L876,297.33l52.09-177.28,135,195.68Z"/><path class="cls-4" d="M1504.17,304V273.91q-.26-31.31-1-38.47a28.48,28.48,0,0,0-4.44-12.81q-8.9-13.81-41.5-13.82-50.37,0-77.79,31.57-11.12,12.81-18.77,12.82a14,14,0,0,1-9.88-3.95,12.15,12.15,0,0,1-4.19-9.12q0-15.52,36.73-32,35-15.78,90.5-15.78,91.23,0,128.71,27.61Q1618.83,232,1623.76,247t4.93,53v97.89q-1,27.12,1.6,40.8T1642,468.21H1503.92V442.32a195.52,195.52,0,0,1-45,23.43,131.76,131.76,0,0,1-44,7.88q-36.75,0-65.34-21.45-37.24-28.11-37.23-73,0-39.7,30.12-64.11,35.05-28.84,86.9-28.85,21.23,0,37.53,3.82T1504.17,304Zm0,17.74q-31.07-15.53-48.08-15.53-14.31,0-18.75,11.34-2.46,6.18-2.46,35.76v58.93q.24,19.49,1.23,23.67,2.48,11.34,16.77,11.34,11.34,0,25.28-6.78a100.25,100.25,0,0,0,25.52-17.88Z"/><polygon class="cls-4" points="1811.64 198.96 1811.64 206.1 1811.15 244.57 1810.65 304.24 1809.92 394.98 1810.9 446.02 1811.39 468.21 1684.66 468.21 1685.89 377.47 1686.63 297.33 1686.14 255.17 1685.39 208.33 1685.64 198.96 1811.64 198.96"/><path class="cls-4" d="M1996.08,131.63l.26,12.59-.5,86.79-.25,37.48-.49,68.3,1,121.81v9.61h-126V456.62l.59-39.2.3-71,.59-92.95-.25-50.06-.74-55,.24-16.78Z"/><path class="cls-4" d="M2151.67,341.47v76.44q0,22.18,2.71,28.11,5.17,11.34,24.41,11.34,28.61,0,56.6-15.66t48.44-43.27q6.66-9.12,9.62-11.59a9.85,9.85,0,0,1,6.41-2.46,8.79,8.79,0,0,1,6.91,3.08,11.37,11.37,0,0,1,2.7,7.76q0,10.36-16.51,27.87-21.71,22.44-53.88,36.49t-62.75,14.05q-52.53,0-92.71-35.25a143.94,143.94,0,0,1-47.1-104.31,142.8,142.8,0,0,1,9.87-51.4,137.18,137.18,0,0,1,27.12-44.51,139.51,139.51,0,0,1,47.34-34,140,140,0,0,1,138.82,15q57.69,41.93,57.21,121.56h-57.46l-74,.25Zm63.12-16.27V253.35q-.49-23.13-1-27.68a16.89,16.89,0,0,0-3.44-8.49q-6.92-9.6-28.12-9.6-21.69,0-27.11,11.08-3.47,6.63-3.46,34.69V325.2l30.08,1Z"/><path class="cls-4" d="M2481.84,275.39l-.5,94.69,1,98.13H2355.59l.29-13.56.3-50.3.89-90.5-1.19-100.59-.29-14.31h126.49v50.8q28.29-30.09,39.37-38,25.59-18,48.23-18,13.77,0,22.76,5.92t9,15a15,15,0,0,1-5.41,11.84,20,20,0,0,1-13.54,4.68,28,28,0,0,1-11.56-3q-10.83-5.17-18-5.18-17.71,0-34.2,12.09T2481.84,275.39Z"/><polygon class="cls-5" points="1722.63 158.37 1711.98 121.07 1734.27 132.57 1722.63 158.37"/><polygon class="cls-5" points="1711.98 121.06 1765.37 75.93 1771.83 92.16 1734.29 132.56 1711.98 121.06"/><polygon class="cls-6" points="1771.84 92.19 1765.38 75.97 1854.19 0.05 1771.84 92.19"/><polygon class="cls-7" points="1807.67 179.09 1733.96 132.31 1779.94 83.07 1807.67 179.09"/><polygon class="cls-7" points="1712 121.1 1653.86 99.09 1765.3 76.02 1712 121.1"/><polygon class="cls-8" points="1653.88 99.14 1854.25 0 1765.42 75.98 1653.88 99.14"/><polygon class="cls-8" points="1722.65 158.32 1734.32 132.56 1745.67 139.76 1722.65 158.32"/><polygon class="cls-8" points="1807.54 179.15 1779.98 83.09 1854.24 0 1807.54 179.15"/></g></g></svg>