<svg xmlns="http://www.w3.org/2000/svg" viewBox="0 0 766 766"><defs><style>.cls-1{fill:#34a853;}.cls-2,.cls-3{fill:red;}.cls-2,.cls-4{fill-rule:evenodd;}.cls-4,.cls-5{fill:#fff;}</style></defs><title>Asset 7</title><g id="Layer_2" data-name="Layer 2"><g id="Layer_1-2" data-name="Layer 1"><circle class="cls-1" cx="383" cy="383" r="383"/><polygon class="cls-2" points="545.2 537.48 407.89 537.48 398.02 520.96 466.67 406 545.2 537.48"/><polygon class="cls-3" points="370.13 244.36 301.47 359.31 290.74 341.33 223.38 228.53 360.69 228.53 370.13 244.36"/><polygon class="cls-4" points="275.73 366.48 266.5 381.93 173.6 537.48 36.29 537.48 129.19 381.93 207.07 251.52 275.73 366.48"/><polygon class="cls-4" points="729.71 537.48 592.4 537.48 499.5 381.93 490.27 366.48 558.93 251.52 636.81 381.93 729.71 537.48"/><polygon class="cls-5" points="542.62 228.53 475.26 341.33 462.38 362.88 451.66 380.86 451.01 381.93 383 495.81 367.98 520.96 358.11 537.48 220.8 537.48 299.33 406 313.7 381.93 314.34 380.86 383 265.9 393.73 247.92 405.31 228.53 542.62 228.53"/></g></g></svg>
